<?xml version="1.0" standalone="no"?>
<!DOCTYPE svg PUBLIC "-//W3C//DTD SVG 20010904//EN"
 "http://www.w3.org/TR/2001/REC-SVG-20010904/DTD/svg10.dtd">
<svg version="1.0" xmlns="http://www.w3.org/2000/svg"
 width="512.000000pt" height="512.000000pt" viewBox="0 0 512.000000 512.000000"
 preserveAspectRatio="xMidYMid meet">
<metadata>
Created by potrace 1.14, written by Peter Selinger 2001-2017
</metadata>
<g transform="translate(0.000000,512.000000) scale(0.100000,-0.100000)"
fill="#000000" stroke="none">
<path d="M388 5104 c-185 -44 -329 -189 -373 -376 -13 -55 -15 -348 -15 -2173
0 -2311 -4 -2160 58 -2285 35 -72 142 -179 212 -213 126 -61 -23 -57 2287 -57
1503 0 2127 3 2165 11 187 39 348 200 387 387 8 38 11 662 11 2165 0 2310 4
2161 -57 2287 -34 70 -141 177 -213 212 -125 62 27 58 -2290 57 -1767 -1
-2124 -3 -2172 -15z m2529 -1035 c42 -16 82 -59 93 -101 9 -33 -25 -197 -300
-1429 -213 -955 -316 -1401 -330 -1424 -24 -39 -74 -65 -125 -65 -42 0 -69 12
-108 48 -61 58 -77 -33 263 1494 210 945 316 1401 329 1418 44 61 113 84 178
59z m-1039 -619 c62 -38 88 -116 61 -187 -5 -15 -161 -179 -345 -363 l-334
-335 330 -330 c182 -182 337 -344 345 -361 55 -116 -54 -251 -173 -214 -29 9
-130 105 -445 419 -225 223 -415 418 -423 433 -18 34 -18 72 0 106 16 30 810
824 841 841 33 17 107 13 143 -9z m1505 9 c31 -16 825 -808 843 -841 18 -34
18 -72 0 -106 -8 -15 -198 -210 -423 -433 -439 -438 -443 -441 -520 -420 -87
24 -135 121 -102 208 5 15 161 179 345 363 l334 335 -330 330 c-182 182 -337
344 -345 361 -33 70 -8 154 57 194 37 22 106 27 141 9z"/>
</g>
</svg>
